<?xml version="1.0" standalone="no"?>
<!DOCTYPE svg PUBLIC "-//W3C//DTD SVG 20010904//EN"
 "http://www.w3.org/TR/2001/REC-SVG-20010904/DTD/svg10.dtd">
<svg version="1.0" xmlns="http://www.w3.org/2000/svg"
 width="260.000000pt" height="260.000000pt" viewBox="0 0 260.000000 260.000000"
 preserveAspectRatio="xMidYMid meet">
<metadata>
Created by potrace 1.11, written by Peter Selinger 2001-2013
</metadata>
<g transform="translate(0.000000,260.000000) scale(0.100000,-0.100000)"
fill="#000000" stroke="none">
<path d="M0 1300 l0 -1300 1300 0 1300 0 0 1300 0 1300 -1300 0 -1300 0 0
-1300z m930 455 c0 -24 -3 -25 -54 -25 -87 0 -86 3 -86 -248 l0 -217 29 30
c148 156 320 344 330 363 21 40 -9 72 -70 72 -24 0 -29 4 -29 25 l0 25 185 0
185 0 0 -25 c0 -22 -4 -25 -33 -25 -65 0 -127 -44 -251 -175 -76 -80 -115
-129 -110 -137 4 -7 77 -116 163 -242 161 -237 179 -256 246 -256 20 0 25 -5
25 -25 l0 -25 -200 0 -200 0 0 25 c0 22 4 25 38 25 57 0 82 10 82 32 0 18
-233 370 -249 376 -5 1 -38 -29 -75 -69 l-66 -71 0 -124 c0 -142 1 -144 89
-144 48 0 51 -2 51 -25 l0 -25 -205 0 -205 0 0 25 c0 24 3 25 54 25 91 0 86
-23 86 410 0 432 7 400 -89 400 -48 0 -51 2 -51 25 l0 25 205 0 205 0 0 -25z
m970 0 c0 -24 -3 -25 -57 -25 -32 0 -65 -5 -73 -10 -13 -8 -15 -64 -18 -384
-3 -452 -15 -416 136 -416 120 0 162 11 213 57 49 44 73 89 95 177 13 54 20
66 36 66 20 0 20 -4 13 -167 -4 -93 -10 -171 -14 -176 -4 -4 -173 -6 -377 -5
l-369 3 -3 23 c-3 20 0 22 48 22 97 0 90 -33 90 403 0 285 -3 386 -12 395 -7
7 -38 12 -70 12 -55 0 -58 1 -58 25 l0 25 210 0 210 0 0 -25z"/>
</g>
</svg>
